<?xml version="1.0" standalone="no"?>
<!DOCTYPE svg PUBLIC "-//W3C//DTD SVG 20010904//EN"
 "http://www.w3.org/TR/2001/REC-SVG-20010904/DTD/svg10.dtd">
<svg version="1.0" xmlns="http://www.w3.org/2000/svg"
 width="600.000000pt" height="600.000000pt" viewBox="0 0 600.000000 600.000000"
 preserveAspectRatio="xMidYMid meet">
<metadata>
Created by potrace 1.14, written by Peter Selinger 2001-2017
</metadata>
<g transform="translate(0.000000,600.000000) scale(0.100000,-0.100000)"
fill="#000000" stroke="none">
<path d="M2706 5384 c-631 -84 -1210 -402 -1588 -874 -455 -568 -605 -1303
-432 -2121 39 -187 50 -211 84 -189 12 8 13 17 1 67 -78 355 -94 482 -94 758
0 223 7 306 44 495 82 415 283 799 579 1104 134 139 230 218 395 328 264 176
565 294 915 359 166 31 515 38 700 14 764 -97 1398 -561 1763 -1292 81 -161
170 -395 216 -570 9 -32 17 -43 32 -43 33 0 33 29 0 139 -146 479 -373 873
-676 1176 -340 340 -745 547 -1240 636 -157 28 -533 35 -699 13z"/>
<path d="M3324 4662 c-5 -4 -151 -387 -323 -852 -172 -465 -316 -848 -320
-852 -3 -4 -163 153 -353 350 -515 530 -535 549 -552 532 -26 -27 -708 -1520
-702 -1536 3 -9 13 -14 22 -12 10 2 133 258 348 723 182 396 336 731 342 744
10 23 32 1 448 -425 240 -247 445 -450 455 -452 10 -2 21 3 23 10 3 7 146 393
318 858 172 465 315 847 316 849 2 1 371 -281 821 -628 450 -347 826 -631 836
-631 13 0 17 6 15 20 -2 12 -306 253 -840 665 -460 355 -838 645 -840 645 -2
0 -8 -4 -14 -8z"/>
<path d="M5401 3259 c-158 -31 -250 -166 -223 -326 29 -176 133 -283 274 -283
194 0 322 147 289 332 -35 200 -171 311 -340 277z m157 -105 c69 -55 116 -192
98 -288 -8 -40 -55 -100 -95 -120 -117 -59 -237 0 -280 139 -27 86 -27 147 0
202 35 72 96 105 187 99 40 -2 61 -10 90 -32z"/>
<path d="M4835 3104 c-111 -26 -206 -62 -219 -83 -7 -11 117 -498 136 -533 10
-20 58 -24 74 -8 9 9 -9 99 -40 197 -6 18 0 22 37 32 25 6 51 13 59 16 10 4
54 -26 119 -79 110 -91 148 -106 169 -67 5 11 10 22 10 25 0 3 -45 40 -100 82
l-101 78 30 23 c40 32 66 100 57 155 -10 61 -49 122 -90 142 -37 17 -108 28
-141 20z m112 -106 c17 -17 27 -41 30 -70 5 -39 2 -49 -26 -80 -23 -27 -47
-40 -106 -57 -42 -13 -78 -21 -81 -18 -3 2 -18 52 -34 111 l-28 106 61 20 c82
26 150 22 184 -12z"/>
<path d="M4384 2978 l-22 -10 39 -147 c73 -270 73 -269 54 -317 -28 -75 -125
-113 -195 -77 -52 27 -73 67 -110 209 -59 231 -68 254 -93 254 -13 0 -31 -6
-40 -12 -16 -12 -13 -29 39 -218 32 -121 65 -220 79 -241 64 -98 241 -106 349
-17 47 38 66 81 66 147 0 58 -95 422 -113 433 -15 10 -27 9 -53 -4z"/>
<path d="M3674 2785 c-105 -29 -196 -55 -203 -59 -15 -9 -14 -28 2 -50 13 -17
17 -17 96 4 45 12 84 21 86 19 2 -2 24 -83 50 -179 84 -314 82 -310 113 -310
58 0 58 0 -12 263 -36 135 -66 248 -66 250 0 3 21 10 48 16 116 29 122 31 122
51 0 31 -11 50 -29 49 -9 0 -102 -25 -207 -54z"/>
<path d="M3302 2689 c-12 -5 -22 -15 -22 -24 0 -20 84 -329 110 -401 11 -32
20 -59 20 -59 0 -1 -87 86 -192 192 -106 107 -203 196 -216 200 -32 8 -86 -9
-90 -29 -4 -20 135 -539 148 -552 6 -6 22 -5 42 1 25 7 32 14 30 29 -7 38 -91
340 -112 399 l-20 60 192 -191 c106 -106 203 -197 215 -203 22 -11 63 -2 88
19 8 7 -9 87 -62 282 -40 150 -73 274 -73 274 0 7 -41 9 -58 3z"/>
<path d="M2595 2496 c-165 -46 -175 -50 -175 -73 0 -15 108 -426 131 -499 5
-18 18 -34 27 -36 10 -3 71 10 137 28 66 17 139 37 163 43 37 10 42 15 42 41
0 16 -4 32 -10 35 -5 3 -71 -10 -145 -31 -75 -20 -137 -35 -139 -33 -4 6 -46
165 -46 176 0 6 30 18 68 27 154 39 172 46 172 69 0 49 -10 50 -131 18 -63
-17 -119 -31 -125 -31 -6 0 -18 33 -28 73 -10 39 -20 77 -22 83 -3 7 45 24
122 44 69 18 132 40 140 47 16 16 4 57 -17 60 -8 0 -81 -18 -164 -41z"/>
<path d="M2236 2402 c-3 -5 -10 -103 -16 -218 -6 -115 -14 -234 -18 -264 l-7
-55 -73 105 c-40 58 -107 157 -150 220 -42 63 -84 116 -93 118 -9 2 -27 -6
-40 -17 l-24 -19 89 -133 c123 -186 253 -357 275 -364 11 -3 35 1 54 8 34 15
34 16 45 103 21 163 33 348 30 434 l-3 85 -32 3 c-17 2 -34 -1 -37 -6z"/>
<path d="M5263 2388 c-6 -7 -20 -44 -33 -83 -153 -475 -453 -902 -832 -1185
-331 -248 -706 -397 -1133 -451 -120 -15 -425 -15 -550 0 -492 60 -951 270
-1286 589 -70 66 -93 82 -109 77 -11 -3 -20 -14 -20 -23 0 -37 270 -263 441
-369 209 -130 500 -245 757 -298 309 -64 715 -60 1026 10 245 56 537 175 745
304 354 220 657 551 851 932 102 199 198 457 184 493 -7 19 -28 21 -41 4z"/>
<path d="M1511 2203 c-19 -16 -23 -43 -47 -306 -28 -302 -27 -317 16 -317 42
0 50 11 51 69 3 113 0 111 119 143 58 15 112 28 121 28 9 0 35 -29 59 -65 46
-70 72 -82 103 -47 16 17 11 28 -91 178 -59 87 -136 198 -170 247 -60 83 -65
87 -101 87 -22 0 -48 -8 -60 -17z m153 -200 l76 -111 -32 -11 c-55 -17 -160
-42 -163 -39 -4 4 15 260 21 277 6 18 6 18 98 -116z"/>
<path d="M1137 2108 c-21 -8 -26 -14 -22 -29 4 -10 37 -134 75 -275 38 -142
73 -261 79 -267 13 -13 60 0 67 17 4 11 -91 389 -132 529 -8 25 -35 36 -67 25z"/>
<path d="M954 2060 c-20 -8 -22 -18 -28 -137 -8 -159 -26 -396 -30 -400 -3 -3
-99 134 -247 352 -30 44 -61 81 -70 83 -9 1 -26 -6 -39 -16 l-24 -19 88 -132
c48 -73 126 -184 173 -247 92 -122 106 -130 166 -103 22 10 26 21 36 103 21
170 30 291 31 398 0 92 -2 109 -17 116 -10 6 -28 6 -39 2z"/>
</g>
</svg>
