<?xml version="1.0" standalone="no"?>
<!DOCTYPE svg PUBLIC "-//W3C//DTD SVG 20010904//EN"
 "http://www.w3.org/TR/2001/REC-SVG-20010904/DTD/svg10.dtd">
<svg version="1.0" xmlns="http://www.w3.org/2000/svg"
 width="700.000000pt" height="700.000000pt" viewBox="0 0 700.000000 700.000000"
 preserveAspectRatio="xMidYMid meet">
<metadata>
Created by potrace 1.14, written by Peter Selinger 2001-2017
</metadata>
<g transform="translate(0.000000,700.000000) scale(0.100000,-0.100000)"
fill="#000000" stroke="none">
<path d="M3335 6293 c-420 -35 -778 -133 -1125 -309 -531 -269 -943 -678
-1202 -1197 -299 -597 -364 -1288 -193 -2046 36 -163 53 -197 80 -170 14 14
13 26 -9 121 -78 326 -101 528 -100 853 0 215 4 285 23 405 27 179 70 356 123
509 52 151 188 428 275 561 649 987 1933 1449 3081 1108 555 -164 1034 -512
1390 -1009 186 -260 360 -622 463 -964 46 -153 58 -176 84 -155 20 16 17 30
-46 226 -391 1212 -1281 1965 -2439 2064 -107 9 -314 11 -405 3z"/>
<path d="M3874 5429 c-3 -6 -171 -455 -373 -998 -201 -543 -369 -989 -373
-992 -4 -2 -216 212 -473 476 -590 607 -563 581 -579 564 -8 -8 -197 -412
-420 -898 -272 -590 -404 -887 -397 -894 5 -5 16 -7 23 -5 7 3 193 396 413
872 l400 867 319 -328 c577 -592 725 -738 735 -728 6 6 177 460 381 1010 204
550 372 1000 373 1001 1 1 196 -148 432 -330 237 -182 668 -515 959 -739 304
-235 535 -407 545 -405 9 2 16 9 16 17 0 15 -1942 1519 -1962 1520 -6 1 -15
-4 -19 -10z"/>
<path d="M6318 3798 c-108 -14 -209 -85 -252 -177 -28 -62 -29 -201 -2 -284
57 -172 202 -268 360 -237 212 41 316 209 260 423 -51 200 -184 299 -366 275z
m97 -79 c125 -32 220 -222 186 -374 -32 -142 -216 -220 -332 -142 -98 66 -159
233 -129 356 17 70 69 127 140 151 65 23 77 24 135 9z"/>
<path d="M5574 3600 c-128 -33 -184 -65 -184 -103 0 -35 152 -591 165 -606 8
-8 22 -11 37 -7 49 13 49 15 14 144 l-33 121 56 16 c31 9 63 18 72 21 10 3 63
-34 138 -96 129 -105 158 -117 185 -78 20 28 19 29 -114 128 l-109 81 44 42
c68 66 81 156 35 247 -52 102 -151 131 -306 90z m196 -95 c62 -59 60 -147 -4
-203 -29 -25 -161 -72 -203 -72 -11 0 -25 41 -58 167 -8 34 -18 69 -21 77 -10
26 122 67 204 62 42 -2 58 -8 82 -31z"/>
<path d="M5115 3466 c-18 -13 -17 -21 40 -232 32 -119 58 -236 57 -259 -1 -75
-37 -124 -111 -150 -84 -29 -154 -10 -196 54 -14 21 -46 116 -75 226 -77 286
-71 274 -130 253 -22 -7 -29 -15 -26 -27 3 -9 33 -117 66 -241 38 -139 70
-239 85 -262 14 -20 46 -50 72 -65 40 -24 59 -28 118 -28 98 1 168 27 225 84
46 46 70 100 70 157 0 40 -115 471 -130 489 -16 19 -41 19 -65 1z"/>
<path d="M4320 3255 c-295 -81 -270 -71 -270 -106 0 -16 6 -32 14 -35 8 -3 56
6 108 19 51 14 94 24 96 22 1 -1 34 -121 72 -266 39 -145 75 -274 80 -286 11
-26 46 -31 73 -10 17 11 13 32 -58 294 -41 155 -75 286 -75 290 0 5 39 18 86
30 93 24 114 36 114 62 0 20 -19 42 -34 40 -6 -1 -99 -25 -206 -54z"/>
<path d="M3845 3126 c-18 -13 -17 -21 35 -212 29 -110 65 -235 80 -279 l28
-80 -233 232 c-149 149 -242 234 -260 239 -33 8 -74 -4 -88 -27 -12 -19 144
-614 167 -637 17 -17 64 -9 72 12 6 15 -91 379 -130 491 l-24 70 235 -233
c130 -128 246 -235 259 -238 29 -7 74 7 88 28 7 12 -13 99 -73 324 -46 170
-88 312 -95 316 -17 12 -40 9 -61 -6z"/>
<path d="M3037 2910 c-98 -27 -185 -54 -193 -60 -8 -7 -14 -21 -14 -30 0 -43
152 -586 169 -603 17 -18 23 -17 167 22 82 22 168 44 190 50 46 12 60 32 44
62 -14 26 -23 25 -189 -21 -80 -22 -146 -38 -148 -36 -5 5 -63 219 -60 222 1
1 63 18 137 38 74 20 138 42 142 49 8 12 1 47 -11 58 -3 4 -69 -10 -146 -31
-77 -21 -141 -37 -143 -35 -2 1 -15 46 -29 100 -21 76 -24 98 -14 105 7 4 70
22 139 40 148 38 162 44 162 70 0 23 -10 50 -19 49 -3 0 -86 -22 -184 -49z"/>
<path d="M2618 2799 c-15 -8 -18 -25 -18 -107 0 -99 -14 -341 -26 -460 l-7
-65 -24 29 c-13 16 -91 128 -172 250 -82 121 -156 226 -165 233 -12 10 -20 10
-42 -1 -15 -7 -29 -18 -31 -25 -5 -13 202 -324 304 -457 91 -119 107 -131 158
-114 47 16 48 20 70 218 23 214 31 475 15 495 -14 17 -37 19 -62 4z"/>
<path d="M6130 2764 c-6 -14 -10 -29 -10 -35 0 -23 -108 -296 -160 -406 -364
-765 -1011 -1293 -1826 -1489 -348 -84 -773 -96 -1129 -33 -525 94 -983 322
-1355 674 -49 47 -93 85 -98 85 -20 0 -34 -28 -24 -47 13 -24 207 -197 295
-263 199 -150 467 -296 694 -379 838 -305 1794 -193 2523 294 172 115 274 198
416 340 221 221 385 449 531 739 91 182 211 501 199 531 -9 25 -45 18 -56 -11z"/>
<path d="M1783 2575 c-38 -16 -38 -15 -57 -215 -43 -452 -45 -502 -13 -508 10
-2 29 -1 41 2 21 5 23 13 29 102 4 53 8 98 10 100 5 5 264 74 278 74 8 0 27
-21 43 -46 65 -102 103 -126 140 -88 14 14 5 32 -103 192 -65 97 -156 228
-200 290 -89 122 -99 127 -168 97z m157 -227 c51 -76 91 -141 87 -144 -5 -5
-214 -64 -228 -64 -3 0 -5 10 -3 23 2 12 8 95 15 185 9 129 14 161 24 150 7
-7 54 -75 105 -150z"/>
<path d="M1319 2450 c-14 -8 -7 -45 68 -322 46 -172 90 -319 97 -327 17 -16
64 -8 72 13 4 11 -90 383 -147 579 -18 62 -22 67 -47 67 -15 0 -34 -5 -43 -10z"/>
<path d="M1096 2391 c-3 -5 -11 -107 -16 -227 -10 -207 -25 -392 -32 -400 -4
-3 -100 134 -256 366 -103 153 -119 167 -161 133 l-23 -19 102 -154 c57 -85
142 -206 189 -269 47 -63 92 -122 100 -133 25 -34 117 -15 126 26 12 50 35
276 46 448 14 214 10 238 -40 238 -16 0 -32 -4 -35 -9z"/>
</g>
</svg>
