<svg width="552" height="479" viewBox="0 0 552 479" fill="none" xmlns="http://www.w3.org/2000/svg">
<path d="M80 256L186.5 128L249.5 240.5L357 89L484.5 256" stroke="black" stroke-width="4" stroke-linecap="round" stroke-linejoin="round"/>
<circle cx="281.5" cy="239.5" r="237" stroke="black" stroke-width="5"/>
<rect y="256" width="552" height="103" fill="white"/>
<path d="M45.312 335.232C44.992 335.552 44.384 335.84 43.488 336.096C42.592 336.352 41.6 336.48 40.512 336.48C39.296 336.48 38.208 336.32 37.248 336C36.288 335.616 35.648 335.072 35.328 334.368C34.496 332.704 33.504 330.56 32.352 327.936C31.264 325.312 30.08 322.4 28.8 319.2C27.584 315.936 26.304 312.512 24.96 308.928C23.68 305.344 22.432 301.792 21.216 298.272C20 294.752 18.848 291.36 17.76 288.096C16.672 284.768 15.744 281.792 14.976 279.168C15.36 278.656 15.936 278.176 16.704 277.728C17.472 277.28 18.336 277.056 19.296 277.056C20.512 277.056 21.408 277.344 21.984 277.92C22.56 278.496 23.04 279.36 23.424 280.512C26.304 288.896 29.056 296.992 31.68 304.8C34.304 312.608 37.184 320.544 40.32 328.608H40.704C42.112 324.96 43.552 321.088 45.024 316.992C46.56 312.832 48.032 308.576 49.44 304.224C50.912 299.808 52.32 295.36 53.664 290.88C55.072 286.4 56.32 282.016 57.408 277.728C58.24 277.28 59.328 277.056 60.672 277.056C61.824 277.056 62.752 277.344 63.456 277.92C64.16 278.496 64.512 279.36 64.512 280.512C64.512 281.472 64.128 283.296 63.36 285.984C62.656 288.608 61.728 291.68 60.576 295.2C59.424 298.72 58.112 302.496 56.64 306.528C55.232 310.56 53.824 314.432 52.416 318.144C51.008 321.856 49.664 325.248 48.384 328.32C47.104 331.392 46.08 333.696 45.312 335.232ZM84.3848 335.808C84.0648 335.936 83.5848 336.064 82.9448 336.192C82.3048 336.384 81.6008 336.48 80.8328 336.48C78.0168 336.48 76.6088 335.296 76.6088 332.928V277.824C76.9288 277.696 77.4088 277.568 78.0488 277.44C78.7528 277.248 79.4888 277.152 80.2568 277.152C83.0088 277.152 84.3848 278.336 84.3848 280.704V335.808ZM134.182 320.448H108.454C108.006 321.728 107.526 323.136 107.014 324.672C106.502 326.144 105.99 327.616 105.478 329.088C105.03 330.496 104.582 331.84 104.134 333.12C103.686 334.336 103.334 335.36 103.078 336.192C102.182 336.576 101.126 336.768 99.9098 336.768C98.8858 336.768 97.9578 336.512 97.1258 336C96.3578 335.424 95.9738 334.528 95.9738 333.312C95.9738 332.736 96.0698 332.16 96.2617 331.584C96.4538 330.944 96.6778 330.272 96.9338 329.568C97.8938 326.88 99.1098 323.424 100.582 319.2C102.118 314.976 103.75 310.496 105.478 305.76C107.27 300.96 109.062 296.16 110.854 291.36C112.71 286.496 114.406 282.144 115.942 278.304C116.454 278.048 117.222 277.792 118.246 277.536C119.27 277.28 120.326 277.152 121.414 277.152C122.694 277.152 123.91 277.344 125.062 277.728C126.278 278.112 127.046 278.752 127.366 279.648C128.902 283.36 130.534 287.616 132.262 292.416C134.054 297.152 135.846 302.016 137.638 307.008C139.43 312 141.126 316.928 142.726 321.792C144.39 326.592 145.862 330.944 147.142 334.848C146.63 335.424 146.022 335.872 145.318 336.192C144.614 336.576 143.814 336.768 142.918 336.768C141.702 336.768 140.774 336.512 140.134 336C139.494 335.424 138.95 334.496 138.502 333.216L134.182 320.448ZM121.318 283.68C120.614 285.6 119.814 287.808 118.918 290.304C118.022 292.736 117.094 295.296 116.134 297.984C115.174 300.672 114.214 303.392 113.254 306.144C112.294 308.896 111.398 311.52 110.566 314.016H132.166C131.206 311.136 130.214 308.256 129.19 305.376C128.166 302.432 127.174 299.616 126.214 296.928C125.318 294.24 124.454 291.776 123.622 289.536C122.854 287.232 122.214 285.28 121.702 283.68H121.318ZM179.843 335.232C179.523 335.552 178.915 335.84 178.019 336.096C177.123 336.352 176.131 336.48 175.043 336.48C173.827 336.48 172.739 336.32 171.779 336C170.819 335.616 170.179 335.072 169.859 334.368C169.027 332.704 168.035 330.56 166.883 327.936C165.795 325.312 164.611 322.4 163.331 319.2C162.115 315.936 160.835 312.512 159.491 308.928C158.211 305.344 156.963 301.792 155.747 298.272C154.531 294.752 153.379 291.36 152.291 288.096C151.203 284.768 150.275 281.792 149.507 279.168C149.891 278.656 150.467 278.176 151.235 277.728C152.003 277.28 152.867 277.056 153.827 277.056C155.043 277.056 155.939 277.344 156.515 277.92C157.091 278.496 157.571 279.36 157.955 280.512C160.835 288.896 163.587 296.992 166.211 304.8C168.835 312.608 171.715 320.544 174.851 328.608H175.235C176.643 324.96 178.083 321.088 179.555 316.992C181.091 312.832 182.563 308.576 183.971 304.224C185.443 299.808 186.851 295.36 188.195 290.88C189.603 286.4 190.851 282.016 191.939 277.728C192.771 277.28 193.859 277.056 195.203 277.056C196.355 277.056 197.283 277.344 197.987 277.92C198.691 278.496 199.043 279.36 199.043 280.512C199.043 281.472 198.659 283.296 197.891 285.984C197.187 288.608 196.259 291.68 195.107 295.2C193.955 298.72 192.643 302.496 191.171 306.528C189.763 310.56 188.355 314.432 186.947 318.144C185.539 321.856 184.195 325.248 182.915 328.32C181.635 331.392 180.611 333.696 179.843 335.232ZM215.268 336C213.988 336 212.964 335.616 212.196 334.848C211.428 334.08 211.044 333.056 211.044 331.776V281.856C211.044 280.576 211.428 279.552 212.196 278.784C212.964 278.016 213.988 277.632 215.268 277.632H247.14C247.332 277.952 247.524 278.4 247.716 278.976C247.908 279.488 248.004 280.064 248.004 280.704C248.004 281.792 247.748 282.656 247.236 283.296C246.724 283.936 245.988 284.256 245.028 284.256H218.82V302.784H244.164C244.356 303.104 244.548 303.552 244.74 304.128C244.932 304.64 245.028 305.216 245.028 305.856C245.028 306.944 244.772 307.808 244.26 308.448C243.748 309.024 243.012 309.312 242.052 309.312H218.82V329.472H247.62C247.812 329.792 248.004 330.208 248.196 330.72C248.388 331.232 248.484 331.84 248.484 332.544C248.484 333.632 248.228 334.496 247.716 335.136C247.204 335.712 246.468 336 245.508 336H215.268ZM266.268 336.48C263.452 336.48 262.044 335.328 262.044 333.024V278.784C263.196 277.632 264.924 277.056 267.228 277.056C268.764 277.056 270.076 277.376 271.164 278.016C272.252 278.592 273.244 279.68 274.14 281.28L292.476 312C293.244 313.344 294.044 314.784 294.876 316.32C295.708 317.792 296.508 319.296 297.276 320.832C298.044 322.304 298.748 323.712 299.388 325.056C300.092 326.336 300.668 327.424 301.116 328.32L301.5 328.224C300.988 323.04 300.668 317.824 300.54 312.576C300.476 307.328 300.444 302.208 300.444 297.216V277.824C300.828 277.696 301.34 277.568 301.98 277.44C302.62 277.248 303.324 277.152 304.092 277.152C306.908 277.152 308.316 278.304 308.316 280.608V334.944C307.74 335.456 307.004 335.84 306.108 336.096C305.212 336.416 304.22 336.576 303.132 336.576C301.596 336.576 300.284 336.288 299.196 335.712C298.108 335.072 297.116 333.952 296.22 332.352L277.98 301.632C277.212 300.352 276.38 298.944 275.484 297.408C274.652 295.872 273.82 294.368 272.988 292.896C272.22 291.424 271.484 290.016 270.78 288.672C270.14 287.328 269.596 286.208 269.148 285.312L268.764 285.408C269.084 288.48 269.34 292 269.532 295.968C269.724 299.872 269.82 303.584 269.82 307.104V335.808C269.5 335.936 268.988 336.064 268.284 336.192C267.644 336.384 266.972 336.48 266.268 336.48ZM345.867 284.256V335.808C345.547 335.936 345.035 336.064 344.331 336.192C343.691 336.384 343.019 336.48 342.315 336.48C339.499 336.48 338.091 335.296 338.091 332.928V284.256H320.139C319.947 283.936 319.755 283.52 319.563 283.008C319.371 282.432 319.275 281.792 319.275 281.088C319.275 280 319.531 279.168 320.043 278.592C320.555 277.952 321.291 277.632 322.251 277.632H363.819C364.011 277.952 364.203 278.4 364.395 278.976C364.587 279.488 364.683 280.064 364.683 280.704C364.683 281.792 364.427 282.656 363.915 283.296C363.403 283.936 362.667 284.256 361.707 284.256H345.867ZM420.981 315.84C420.981 319.104 420.469 322.048 419.445 324.672C418.485 327.296 417.013 329.536 415.029 331.392C413.109 333.248 410.741 334.688 407.925 335.712C405.109 336.736 401.877 337.248 398.229 337.248C394.581 337.248 391.349 336.736 388.533 335.712C385.717 334.688 383.349 333.248 381.429 331.392C379.509 329.536 378.037 327.296 377.013 324.672C376.053 322.048 375.573 319.104 375.573 315.84V277.824C375.893 277.696 376.373 277.568 377.013 277.44C377.717 277.248 378.453 277.152 379.221 277.152C381.973 277.152 383.349 278.336 383.349 280.704V315.168C383.349 317.728 383.733 319.968 384.501 321.888C385.269 323.808 386.293 325.44 387.573 326.784C388.917 328.064 390.485 329.024 392.277 329.664C394.133 330.304 396.117 330.624 398.229 330.624C400.341 330.624 402.293 330.304 404.085 329.664C405.941 329.024 407.509 328.064 408.789 326.784C410.133 325.44 411.189 323.808 411.957 321.888C412.725 319.968 413.109 317.728 413.109 315.168V277.824C413.429 277.696 413.909 277.568 414.549 277.44C415.253 277.248 415.989 277.152 416.757 277.152C419.573 277.152 420.981 278.336 420.981 280.704V315.84ZM445.885 335.808C445.501 335.936 444.989 336.064 444.349 336.192C443.709 336.384 443.005 336.48 442.237 336.48C439.421 336.48 438.013 335.296 438.013 332.928V281.856C438.013 280.832 438.269 280.064 438.781 279.552C439.293 278.976 440.093 278.528 441.181 278.208C443.037 277.632 445.309 277.216 447.997 276.96C450.749 276.704 453.405 276.576 455.965 276.576C464.029 276.576 470.013 278.208 473.917 281.472C477.885 284.672 479.869 289.248 479.869 295.2C479.869 299.616 478.717 303.328 476.413 306.336C474.173 309.344 470.749 311.488 466.141 312.768C467.741 314.816 469.341 316.864 470.941 318.912C472.541 320.96 474.045 322.912 475.453 324.768C476.925 326.56 478.205 328.192 479.293 329.664C480.445 331.136 481.341 332.288 481.981 333.12C481.725 334.208 481.149 335.072 480.253 335.712C479.421 336.352 478.557 336.672 477.661 336.672C476.573 336.672 475.677 336.416 474.973 335.904C474.269 335.392 473.533 334.592 472.765 333.504L458.749 313.92H445.885V335.808ZM456.829 307.392C461.565 307.392 465.277 306.368 467.965 304.32C470.653 302.272 471.997 299.232 471.997 295.2C471.997 291.168 470.589 288.16 467.773 286.176C464.957 284.128 460.925 283.104 455.677 283.104C453.949 283.104 452.189 283.2 450.397 283.392C448.669 283.52 447.133 283.712 445.789 283.968V307.392H456.829ZM546.302 306.816C546.302 311.808 545.598 316.224 544.19 320.064C542.782 323.84 540.83 327.008 538.333 329.568C535.838 332.064 532.894 333.984 529.502 335.328C526.11 336.608 522.43 337.248 518.462 337.248C514.494 337.248 510.814 336.608 507.422 335.328C504.03 333.984 501.086 332.064 498.59 329.568C496.094 327.008 494.142 323.84 492.734 320.064C491.326 316.224 490.622 311.808 490.622 306.816C490.622 301.824 491.326 297.44 492.734 293.664C494.206 289.888 496.19 286.72 498.686 284.16C501.182 281.6 504.126 279.68 507.518 278.4C510.91 277.056 514.558 276.384 518.462 276.384C522.366 276.384 526.014 277.056 529.406 278.4C532.798 279.68 535.742 281.6 538.238 284.16C540.734 286.72 542.686 289.888 544.094 293.664C545.566 297.44 546.302 301.824 546.302 306.816ZM538.333 306.816C538.333 299.136 536.51 293.248 532.862 289.152C529.278 285.056 524.478 283.008 518.462 283.008C515.454 283.008 512.734 283.552 510.302 284.64C507.87 285.664 505.79 287.2 504.062 289.248C502.334 291.232 500.99 293.696 500.03 296.64C499.134 299.584 498.686 302.976 498.686 306.816C498.686 314.496 500.478 320.384 504.062 324.48C507.646 328.576 512.446 330.624 518.462 330.624C524.542 330.624 529.374 328.576 532.958 324.48C536.542 320.384 538.333 314.496 538.333 306.816Z" fill="black"/>
</svg>
