<svg width="600" height="600" viewBox="0 0 600 600" fill="none" xmlns="http://www.w3.org/2000/svg">
<path d="M133.022 468.972C246.212 586.17 471.146 554.369 528.086 363.115" stroke="black" stroke-width="5" stroke-linecap="round"/>
<path d="M96.2625 454.215C96.0362 454.607 95.5234 455.043 94.7242 455.522C93.925 456.001 92.9999 456.381 91.949 456.663C90.7745 456.978 89.6821 457.105 88.672 457.044C87.6453 456.922 86.8863 456.562 86.395 455.965C85.1607 454.573 83.6476 452.758 81.8557 450.522C80.1256 448.269 78.2283 445.763 76.1637 443.003C74.1443 440.165 72.0218 437.189 69.796 434.075C67.632 430.944 65.5072 427.836 63.4216 424.751C61.3359 421.666 59.3453 418.687 57.4496 415.816C55.5373 412.883 53.8707 410.249 52.4497 407.913C52.6881 407.319 53.1202 406.706 53.7461 406.075C54.372 405.443 55.1486 405.003 56.0759 404.755C57.2504 404.44 58.1904 404.486 58.8959 404.894C59.6014 405.301 60.2886 406.011 60.9577 407.025C65.9095 414.378 70.6631 421.485 75.2186 428.348C79.774 435.211 84.6099 442.131 89.7261 449.109L90.0971 449.009C90.5129 445.121 90.9017 441.009 91.2634 436.671C91.6704 432.255 91.9907 427.763 92.2243 423.195C92.5032 418.549 92.712 413.888 92.8507 409.213C93.0512 404.521 93.1221 399.963 93.0632 395.54C93.7509 394.892 94.7438 394.394 96.042 394.046C97.1548 393.748 98.1257 393.786 98.9548 394.16C99.7839 394.534 100.347 395.278 100.646 396.39C100.894 397.318 100.995 399.179 100.949 401.974C100.948 404.691 100.847 407.898 100.645 411.597C100.444 415.295 100.154 419.282 99.7753 423.557C99.4589 427.816 99.101 431.921 98.7017 435.871C98.3024 439.821 97.8821 443.445 97.4408 446.744C96.9995 450.042 96.6067 452.533 96.2625 454.215ZM134.153 444.659C133.877 444.865 133.446 445.113 132.861 445.402C132.293 445.753 131.638 446.028 130.896 446.227C128.176 446.956 126.509 446.177 125.896 443.889L111.635 390.663C111.91 390.457 112.341 390.209 112.926 389.919C113.556 389.552 114.242 389.269 114.984 389.07C117.643 388.358 119.278 389.145 119.891 391.432L134.153 444.659ZM178.278 416.934L153.426 423.593C153.325 424.945 153.226 426.429 153.129 428.045C153.015 429.6 152.901 431.154 152.788 432.708C152.72 434.184 152.635 435.599 152.533 436.951C152.415 438.241 152.34 439.322 152.308 440.192C151.542 440.794 150.572 441.253 149.397 441.568C148.408 441.833 147.446 441.826 146.509 441.547C145.619 441.189 145.016 440.423 144.701 439.248C144.552 438.692 144.496 438.111 144.532 437.505C144.552 436.837 144.594 436.13 144.659 435.383C144.891 432.539 145.171 428.886 145.5 424.425C145.89 419.947 146.307 415.197 146.75 410.175C147.239 405.075 147.727 399.975 148.216 394.875C148.75 389.696 149.262 385.053 149.752 380.947C150.18 380.567 150.855 380.121 151.778 379.608C152.701 379.096 153.688 378.699 154.739 378.418C155.975 378.086 157.2 377.957 158.412 378.03C159.686 378.086 160.593 378.505 161.134 379.288C163.578 382.476 166.256 386.165 169.168 390.354C172.125 394.465 175.114 398.699 178.137 403.057C181.16 407.415 184.074 411.736 186.878 416.021C189.728 420.226 192.276 424.049 194.523 427.489C194.178 428.178 193.706 428.768 193.109 429.259C192.528 429.812 191.805 430.205 190.94 430.437C189.765 430.751 188.803 430.744 188.052 430.415C187.285 430.025 186.519 429.269 185.755 428.149L178.278 416.934ZM156.336 384.748C156.153 386.785 155.951 389.125 155.732 391.767C155.496 394.348 155.262 397.061 155.031 399.906C154.799 402.751 154.576 405.627 154.361 408.534C154.146 411.44 153.959 414.207 153.802 416.833L174.666 411.243C172.993 408.709 171.289 406.184 169.555 403.667C167.804 401.089 166.117 398.625 164.494 396.277C162.933 393.913 161.46 391.756 160.077 389.808C158.739 387.781 157.615 386.062 156.707 384.649L156.336 384.748ZM226.21 419.396C225.983 419.788 225.471 420.223 224.671 420.703C223.872 421.182 222.947 421.562 221.896 421.844C220.722 422.158 219.629 422.285 218.619 422.225C217.593 422.102 216.834 421.743 216.342 421.145C215.108 419.753 213.595 417.939 211.803 415.703C210.073 413.45 208.176 410.943 206.111 408.184C204.092 405.346 201.969 402.37 199.743 399.256C197.579 396.125 195.454 393.017 193.369 389.932C191.283 386.846 189.292 383.868 187.397 380.997C185.485 378.064 183.818 375.43 182.397 373.094C182.635 372.5 183.067 371.887 183.693 371.256C184.319 370.624 185.096 370.184 186.023 369.936C187.198 369.621 188.138 369.667 188.843 370.074C189.549 370.482 190.236 371.192 190.905 372.205C195.857 379.558 200.61 386.666 205.166 393.529C209.721 400.392 214.557 407.312 219.673 414.29L220.044 414.19C220.46 410.302 220.849 406.189 221.211 401.852C221.618 397.436 221.938 392.944 222.172 388.376C222.45 383.73 222.659 379.069 222.798 374.393C222.998 369.702 223.069 365.144 223.01 360.721C223.698 360.073 224.691 359.575 225.989 359.227C227.102 358.929 228.073 358.967 228.902 359.341C229.731 359.715 230.295 360.458 230.593 361.571C230.841 362.498 230.942 364.36 230.896 367.155C230.896 369.872 230.794 373.079 230.593 376.777C230.391 380.476 230.101 384.462 229.723 388.738C229.406 392.997 229.048 397.102 228.649 401.051C228.25 405.001 227.829 408.626 227.388 411.924C226.947 415.223 226.554 417.713 226.21 419.396ZM260.626 410.969C259.39 411.3 258.301 411.195 257.361 410.651C256.42 410.108 255.784 409.219 255.453 407.982L242.533 359.763C242.201 358.527 242.307 357.438 242.85 356.498C243.393 355.557 244.283 354.921 245.519 354.59L276.305 346.341C276.574 346.6 276.875 346.983 277.21 347.49C277.528 347.935 277.769 348.466 277.935 349.085C278.217 350.135 278.193 351.036 277.864 351.787C277.535 352.538 276.907 353.037 275.98 353.286L250.665 360.069L255.46 377.966L279.941 371.406C280.209 371.665 280.51 372.049 280.845 372.555C281.163 373 281.405 373.532 281.57 374.15C281.852 375.201 281.828 376.102 281.499 376.852C281.154 377.541 280.517 378.01 279.59 378.258L257.15 384.271L262.368 403.744L290.186 396.29C290.454 396.55 290.748 396.902 291.066 397.347C291.384 397.791 291.634 398.354 291.816 399.034C292.097 400.085 292.074 400.986 291.745 401.736C291.399 402.425 290.763 402.894 289.836 403.142L260.626 410.969ZM310.013 398.233C307.293 398.962 305.634 398.213 305.038 395.988L291 343.596C291.814 342.185 293.334 341.182 295.56 340.585C297.043 340.188 298.394 340.157 299.61 340.494C300.81 340.769 302.05 341.563 303.33 342.876L328.992 367.804C330.081 368.903 331.227 370.087 332.428 371.356C333.613 372.562 334.775 373.808 335.914 375.093C337.037 376.316 338.081 377.494 339.047 378.626C340.059 379.68 340.897 380.582 341.561 381.332L341.907 381.14C340.071 376.265 338.412 371.309 336.93 366.273C335.51 361.221 334.154 356.283 332.862 351.461L327.843 332.73C328.181 332.507 328.642 332.251 329.227 331.962C329.796 331.611 330.451 331.336 331.193 331.137C333.913 330.408 335.571 331.156 336.167 333.382L350.23 385.866C349.806 386.51 349.195 387.072 348.396 387.551C347.613 388.092 346.696 388.503 345.645 388.785C344.162 389.182 342.82 389.244 341.62 388.969C340.403 388.632 339.155 387.807 337.876 386.493L312.306 361.541C311.233 360.503 310.065 359.359 308.802 358.107C307.601 356.839 306.408 355.601 305.223 354.395C304.1 353.172 303.025 352.002 301.997 350.886C301.031 349.754 300.216 348.813 299.551 348.063L299.205 348.255C300.309 351.14 301.468 354.474 302.68 358.257C303.876 361.978 304.929 365.539 305.84 368.939L313.27 396.665C312.994 396.871 312.532 397.127 311.885 397.433C311.317 397.784 310.693 398.051 310.013 398.233ZM373.383 327.187L386.725 376.982C386.449 377.189 385.988 377.445 385.341 377.751C384.773 378.102 384.148 378.368 383.468 378.551C380.748 379.279 379.082 378.5 378.469 376.213L365.872 329.199L348.531 333.846C348.263 333.586 347.97 333.234 347.652 332.789C347.317 332.283 347.059 331.689 346.877 331.009C346.595 329.958 346.627 329.088 346.973 328.399C347.302 327.649 347.93 327.149 348.857 326.901L389.009 316.142C389.277 316.402 389.578 316.785 389.913 317.291C390.231 317.736 390.473 318.268 390.638 318.886C390.92 319.937 390.896 320.838 390.567 321.588C390.238 322.339 389.61 322.839 388.683 323.087L373.383 327.187ZM454.112 338.254C454.957 341.406 455.224 344.383 454.914 347.182C454.666 349.965 453.824 352.51 452.388 354.816C451.014 357.106 449.099 359.11 446.644 360.828C444.189 362.546 441.2 363.877 437.676 364.821C434.152 365.765 430.898 366.107 427.913 365.847C424.928 365.586 422.268 364.808 419.933 363.512C417.598 362.217 415.596 360.434 413.928 358.164C412.321 355.878 411.096 353.159 410.251 350.006L400.412 313.285C400.688 313.079 401.118 312.831 401.703 312.542C402.334 312.174 403.02 311.891 403.762 311.692C406.42 310.98 408.055 311.767 408.668 314.055L417.588 347.344C418.251 349.817 419.201 351.881 420.44 353.537C421.679 355.193 423.09 356.504 424.675 357.471C426.304 358.36 428.067 358.881 429.964 359.036C431.922 359.174 433.921 358.969 435.961 358.422C438.001 357.876 439.804 357.062 441.369 355.98C442.997 354.881 444.263 353.548 445.168 351.98C446.118 350.334 446.716 348.484 446.961 346.431C447.206 344.378 446.997 342.115 446.334 339.642L436.669 303.57C436.945 303.364 437.375 303.116 437.96 302.827C438.591 302.459 439.277 302.176 440.019 301.977C442.739 301.248 444.405 302.028 445.018 304.315L454.112 338.254ZM483.335 351.096C482.997 351.319 482.536 351.575 481.951 351.864C481.382 352.215 480.727 352.49 479.985 352.689C477.265 353.418 475.599 352.639 474.986 350.351L461.768 301.019C461.502 300.03 461.551 299.222 461.913 298.595C462.259 297.906 462.915 297.266 463.883 296.676C465.527 295.639 467.614 294.649 470.144 293.706C472.736 292.747 475.268 291.936 477.741 291.273C485.53 289.186 491.733 289.214 496.349 291.356C501.01 293.42 504.111 297.326 505.651 303.076C506.794 307.341 506.642 311.225 505.195 314.727C503.81 318.212 501.057 321.169 496.938 323.598C499.013 325.162 501.089 326.726 503.164 328.29C505.24 329.854 507.198 331.351 509.038 332.779C510.924 334.129 512.583 335.374 514.015 336.514C515.508 337.638 516.672 338.519 517.505 339.157C517.54 340.274 517.207 341.258 516.507 342.108C515.869 342.941 515.117 343.474 514.252 343.706C513.201 343.988 512.269 343.972 511.457 343.66C510.644 343.347 509.726 342.765 508.703 341.913L490.096 326.624L477.67 329.953L483.335 351.096ZM486.552 320.815C491.126 319.59 494.447 317.64 496.513 314.966C498.579 312.292 499.091 309.008 498.047 305.113C497.004 301.218 494.865 298.677 491.632 297.49C488.381 296.24 484.222 296.295 479.153 297.653C477.484 298.1 475.808 298.649 474.127 299.298C472.491 299.869 471.057 300.452 469.825 301.047L475.888 323.673L486.552 320.815ZM572.827 297.102C574.119 301.924 574.582 306.371 574.215 310.445C573.833 314.457 572.767 318.022 571.019 321.141C569.254 324.198 566.907 326.814 563.978 328.99C561.033 331.105 557.644 332.675 553.812 333.702C549.979 334.729 546.259 335.064 542.651 334.705C539.027 334.285 535.686 333.192 532.629 331.427C529.555 329.601 526.85 327.046 524.513 323.763C522.159 320.418 520.336 316.335 519.044 311.513C517.752 306.691 517.297 302.274 517.68 298.262C518.124 294.234 519.221 290.66 520.969 287.542C522.718 284.423 525.064 281.806 528.009 279.692C530.938 277.516 534.288 275.923 538.059 274.912C541.83 273.902 545.527 273.607 549.152 274.027C552.759 274.385 556.1 275.478 559.174 277.305C562.247 279.132 564.952 281.686 567.29 284.969C569.689 288.236 571.535 292.28 572.827 297.102ZM565.13 299.164C563.142 291.746 559.857 286.53 555.273 283.518C550.751 280.489 545.584 279.753 539.773 281.311C536.868 282.089 534.381 283.318 532.314 284.999C530.23 286.617 528.618 288.639 527.479 291.065C526.323 293.429 525.663 296.156 525.497 299.249C525.394 302.324 525.839 305.717 526.833 309.426C528.821 316.844 532.076 322.068 536.598 325.096C541.12 328.125 546.286 328.861 552.097 327.304C557.97 325.73 562.107 322.502 564.509 317.618C566.911 312.734 567.118 306.582 565.13 299.164Z" fill="black"/>
<path d="M109.262 368.705L179.004 217.502L268.974 309.863L333.6 135.702L499.979 264.013" stroke="black" stroke-width="4" stroke-linecap="round" stroke-linejoin="round"/>
<path d="M75.4544 377.764C-12.2853 50.3148 444.598 -72.1066 532.337 255.342" stroke="black" stroke-width="5" stroke-linecap="round"/>
</svg>
