<svg width="auto" height="auto" viewBox="0 0 554 484" fill="none" xmlns="http://www.w3.org/2000/svg">
<path d="M96.0223 410.972C209.212 528.17 434.146 496.369 491.086 305.115" stroke="currentColor" stroke-width="8" stroke-linecap="round"/>
<path d="M52.0258 395.207C51.4043 396.102 50.3253 397.02 48.7887 397.962C47.3139 398.887 45.6183 399.607 43.7019 400.12C41.3528 400.75 39.2526 400.948 37.4013 400.715C35.5499 400.483 34.1495 399.831 33.2 398.76C32.0607 397.475 30.69 395.822 29.088 393.799C27.4694 391.715 25.7311 389.431 23.8729 386.948C22.06 384.386 20.1356 381.655 18.0997 378.755C16.0638 375.855 14.0588 372.947 12.0847 370.03C10.1559 367.035 8.28278 364.125 6.46545 361.299C4.69338 358.395 3.1112 355.705 1.71892 353.229C2.3238 352.271 3.24605 351.262 4.48569 350.201C5.78714 349.124 7.27243 348.361 8.94155 347.914C10.9816 347.368 12.744 347.392 14.2289 347.988C15.759 348.506 17.1705 349.817 18.4634 351.922C22.0407 357.855 25.5517 363.54 28.9964 368.977C32.4412 374.415 36.0593 380.005 39.8507 385.747L40.4071 385.598C40.6549 379.105 40.7989 371.977 40.8391 364.214C40.8793 356.451 40.8124 348.783 40.6384 341.21C41.495 340.45 42.4383 339.767 43.4682 339.16C44.4981 338.552 45.724 338.058 47.1458 337.677C49.1859 337.131 51.0411 337.131 52.7114 337.677C54.4435 338.207 55.5912 339.522 56.1543 341.624C56.5022 342.922 56.684 344.961 56.6997 347.739C56.7772 350.502 56.7294 353.662 56.5564 357.22C56.3834 360.778 56.1282 364.523 55.7907 368.457C55.4532 372.39 55.0661 376.138 54.6292 379.7C54.2542 383.246 53.8107 386.413 53.2987 389.2C52.8485 391.971 52.4242 393.973 52.0258 395.207ZM86.4952 388.455C83.5897 389.234 81.4171 389.286 79.9775 388.611C78.5997 387.92 77.563 386.277 76.8673 383.68L63.4253 333.514C64.0721 333.208 64.9889 332.797 66.1756 332.28C67.4241 331.747 68.6975 331.306 69.9957 330.958C72.7776 330.213 74.88 330.147 76.303 330.759C77.7879 331.355 78.8947 333.013 79.6236 335.733L93.0656 385.9C92.4353 386.267 91.5185 386.679 90.3152 387.133C89.1285 387.65 87.8552 388.091 86.4952 388.455ZM134.006 361.811L115.831 366.681C115.747 369.088 115.686 371.457 115.648 373.786C115.671 376.099 115.69 378.148 115.705 379.933C114.967 380.395 114.191 380.835 113.375 381.253C112.559 381.67 111.533 382.044 110.297 382.376C107.577 383.105 105.381 383.196 103.711 382.65C102.086 382.025 101.033 380.816 100.553 379.023C100.321 378.158 100.221 377.29 100.253 376.42C100.285 375.55 100.315 374.549 100.342 373.415C100.328 371.63 100.391 369.393 100.532 366.705C100.673 364.017 100.826 361.127 100.992 358.035C101.202 354.864 101.427 351.623 101.666 348.313C101.906 345.002 102.156 341.854 102.416 338.869C102.66 335.822 102.877 333.047 103.068 330.545C103.258 328.042 103.45 326.036 103.642 324.527C104.42 323.722 105.701 322.816 107.485 321.808C109.33 320.783 111.211 320.014 113.128 319.501C115.91 318.755 118.459 318.503 120.776 318.743C123.139 318.905 124.869 319.8 125.968 321.427C128.02 324.389 130.306 327.851 132.826 331.814C135.346 335.777 137.898 339.863 140.484 344.074C143.132 348.267 145.701 352.416 148.192 356.519C150.683 360.622 152.895 364.303 154.828 367.561C154.363 368.547 153.517 369.47 152.29 370.329C151.124 371.171 149.614 371.841 147.759 372.338C145.101 373.05 143.091 373.092 141.73 372.462C140.431 371.817 139.269 370.571 138.244 368.725L134.006 361.811ZM116.514 332.507C116.394 335.521 116.165 338.995 115.827 342.928C115.535 346.783 115.33 350.714 115.211 354.722L128.471 351.169C126.376 347.556 124.301 344.136 122.244 340.911C120.232 337.607 118.508 334.756 117.07 332.358L116.514 332.507ZM191.3 357.888C190.679 358.783 189.6 359.702 188.063 360.644C186.588 361.569 184.893 362.288 182.976 362.802C180.627 363.431 178.527 363.63 176.676 363.397C174.824 363.164 173.424 362.512 172.474 361.442C171.335 360.157 169.964 358.503 168.362 356.481C166.744 354.397 165.006 352.113 163.147 349.629C161.334 347.067 159.41 344.336 157.374 341.436C155.338 338.536 153.333 335.628 151.359 332.712C149.43 329.717 147.557 326.807 145.74 323.981C143.968 321.076 142.386 318.386 140.993 315.91C141.598 314.953 142.52 313.944 143.76 312.883C145.062 311.805 146.547 311.043 148.216 310.596C150.256 310.049 152.018 310.074 153.503 310.67C155.033 311.187 156.445 312.499 157.738 314.604C161.315 320.536 164.826 326.221 168.271 331.659C171.716 337.096 175.334 342.687 179.125 348.429L179.682 348.28C179.929 341.786 180.073 334.658 180.114 326.895C180.154 319.132 180.087 311.464 179.913 303.891C180.769 303.132 181.713 302.448 182.743 301.841C183.773 301.234 184.998 300.74 186.42 300.359C188.46 299.812 190.315 299.812 191.986 300.358C193.718 300.888 194.866 302.204 195.429 304.306C195.777 305.604 195.958 307.642 195.974 310.421C196.052 313.183 196.004 316.343 195.831 319.901C195.658 323.459 195.403 327.205 195.065 331.138C194.728 335.072 194.34 338.819 193.904 342.382C193.529 345.928 193.085 349.094 192.573 351.882C192.123 354.653 191.699 356.655 191.3 357.888ZM225.553 350.698C223.204 351.327 221.136 351.153 219.35 350.174C217.609 349.116 216.423 347.413 215.794 345.064L204.812 304.078C204.182 301.728 204.365 299.692 205.361 297.967C206.402 296.164 208.097 294.948 210.446 294.319L241.139 286.095C241.676 286.613 242.223 287.295 242.78 288.139C243.338 288.984 243.774 289.993 244.089 291.168C244.635 293.208 244.578 294.847 243.915 296.084C243.315 297.305 242.211 298.131 240.604 298.562L220.018 304.078L222.801 314.464L244.314 308.699C244.85 309.218 245.397 309.9 245.955 310.744C246.513 311.588 246.949 312.598 247.263 313.773C247.81 315.813 247.783 317.443 247.183 318.664C246.566 319.823 245.454 320.618 243.846 321.049L225.857 325.869L228.963 337.46L253.536 330.876C254.072 331.395 254.628 332.107 255.202 333.014C255.776 333.92 256.22 334.96 256.535 336.135C257.082 338.175 257.016 339.783 256.337 340.959C255.72 342.118 254.639 342.904 253.093 343.318L225.553 350.698ZM317.567 323.956C316.9 324.929 315.883 325.831 314.515 326.662C313.164 327.554 311.469 328.273 309.429 328.82C307.327 329.383 305.257 329.573 303.221 329.39C301.184 329.207 299.224 328.075 297.342 325.996L281.02 308.107C279.439 306.41 277.92 304.697 276.462 302.967C275.067 301.221 273.646 299.382 272.201 297.45L271.602 297.809C272.905 301.436 274.043 304.941 275.015 308.324C275.972 311.646 276.872 314.883 277.717 318.036L282.338 335.283C281.753 335.573 280.859 335.945 279.656 336.4C278.531 336.9 277.32 337.324 276.021 337.672C273.24 338.417 271.168 338.475 269.807 337.846C268.429 337.155 267.409 335.573 266.746 333.101L253.95 285.345C254.41 284.096 255.37 282.977 256.828 281.99C258.331 280.925 260.01 280.143 261.865 279.647C264.029 279.067 266.098 278.877 268.073 279.076C270.11 279.259 272.061 280.36 273.927 282.378L290.367 300.335C291.948 302.031 293.436 303.753 294.831 305.499C296.289 307.229 297.74 309.06 299.185 310.991L299.531 310.799C298.112 306.74 296.875 302.864 295.819 299.172C294.826 295.463 293.873 291.908 292.962 288.508L288.838 273.115C289.423 272.826 290.278 272.431 291.402 271.931C292.589 271.414 293.863 270.973 295.223 270.609C298.004 269.864 300.084 269.836 301.462 270.527C302.823 271.156 303.835 272.707 304.498 275.18L317.567 323.956ZM345.041 270.777L356.942 315.194C356.312 315.562 355.395 315.973 354.192 316.428C353.005 316.945 351.732 317.385 350.372 317.75C347.466 318.528 345.294 318.58 343.854 317.906C342.415 317.231 341.347 315.596 340.651 313L330.39 274.703L315.831 278.604C315.295 278.085 314.708 277.38 314.072 276.491C313.498 275.584 313.054 274.544 312.739 273.369C312.176 271.268 312.234 269.629 312.913 268.453C313.575 267.215 314.71 266.381 316.317 265.951L356.839 255.093C357.438 255.595 358.024 256.299 358.598 257.206C359.172 258.112 359.617 259.152 359.931 260.327C360.478 262.367 360.42 264.006 359.758 265.243C359.096 266.481 357.961 267.315 356.354 267.746L345.041 270.777ZM406.425 303.724C402.592 304.751 399.02 305.145 395.71 304.906C392.461 304.65 389.529 303.845 386.913 302.492C384.298 301.139 382.078 299.282 380.253 296.922C378.411 294.5 377.043 291.62 376.149 288.282L366.508 252.303C367.155 251.997 368.072 251.586 369.259 251.069C370.507 250.536 371.78 250.095 373.079 249.748C375.86 249.002 377.963 248.936 379.386 249.548C380.871 250.144 381.978 251.802 382.706 254.522L390.633 284.103C391.527 287.441 393.119 289.797 395.409 291.172C397.744 292.467 400.364 292.726 403.269 291.948C406.237 291.152 408.377 289.618 409.689 287.345C411.047 284.994 411.278 282.149 410.384 278.811L400.818 243.11C401.465 242.804 402.382 242.393 403.568 241.876C404.817 241.343 406.09 240.902 407.388 240.554C410.17 239.809 412.273 239.743 413.696 240.355C415.18 240.951 416.287 242.609 417.016 245.329L425.017 275.188C425.911 278.526 426.167 281.704 425.783 284.723C425.382 287.679 424.388 290.397 422.799 292.876C421.211 295.356 419.043 297.527 416.296 299.39C413.548 301.252 410.258 302.697 406.425 303.724ZM477.868 242.044C478.829 245.629 478.732 249.1 477.577 252.458C476.485 255.798 474.555 258.734 471.787 261.264C475.217 263.923 478.472 266.43 481.555 268.785C484.682 271.061 487.043 272.946 488.636 274.441C488.61 276.568 487.964 278.364 486.701 279.829C485.482 281.216 483.976 282.149 482.183 282.63C479.834 283.259 477.909 283.245 476.408 282.587C474.89 281.867 473.334 280.76 471.741 279.266L459.137 267.834L452.739 269.549L457.733 288.187C457.102 288.555 456.186 288.966 454.982 289.421C453.796 289.938 452.522 290.378 451.162 290.743C448.257 291.521 446.084 291.573 444.645 290.899C443.267 290.208 442.23 288.564 441.534 285.968L429.484 240.995C429.153 239.758 429.205 238.717 429.641 237.872C430.139 237.009 430.956 236.227 432.093 235.525C433.873 234.253 436.112 233.09 438.811 232.035C441.51 230.981 444.374 230.048 447.403 229.236C455.811 226.983 462.588 227.056 467.736 229.453C472.867 231.788 476.245 235.985 477.868 242.044ZM455.296 256.838C458.263 256.043 460.5 254.748 462.007 252.952C463.497 251.095 463.878 248.807 463.149 246.087C461.724 240.77 457.458 239.065 450.348 240.97C449.359 241.235 448.479 241.537 447.709 241.876C446.922 242.153 446.143 242.461 445.372 242.8L449.547 258.378L455.296 256.838ZM545.961 234.432C547.253 239.254 547.654 243.719 547.165 247.825C546.737 251.915 545.564 255.576 543.647 258.806C541.713 261.974 539.158 264.68 535.982 266.922C532.806 269.165 529.148 270.841 525.006 271.951C520.864 273.06 516.857 273.438 512.986 273.084C509.114 272.73 505.549 271.665 502.29 269.888C499.076 268.032 496.23 265.449 493.753 262.137C491.337 258.809 489.483 254.734 488.191 249.912C486.899 245.09 486.506 240.657 487.013 236.612C487.503 232.505 488.714 228.867 490.648 225.699C492.565 222.469 495.081 219.741 498.195 217.515C501.371 215.272 504.999 213.605 509.079 212.511C513.159 211.418 517.135 211.048 521.006 211.402C524.878 211.756 528.452 212.853 531.727 214.692C534.986 216.469 537.854 219.013 540.332 222.325C542.793 225.575 544.669 229.61 545.961 234.432ZM530.939 238.458C529.349 232.523 526.889 228.411 523.559 226.123C520.275 223.757 516.5 223.145 512.235 224.288C508.031 225.414 505.067 227.832 503.345 231.54C501.605 235.186 501.53 239.977 503.121 245.912C504.727 251.908 507.173 256.09 510.457 258.456C513.787 260.744 517.585 261.317 521.85 260.174C526.116 259.031 529.087 256.645 530.765 253.015C532.488 249.306 532.546 244.454 530.939 238.458Z" fill="currentColor"/>
<path d="M72.2618 310.705L142.004 159.502L231.974 251.863L296.6 77.7025L462.979 206.013" stroke="currentColor" stroke-width="6" stroke-linecap="round" stroke-linejoin="round"/>
<path d="M38.4544 319.764C-49.2853 -7.68523 407.598 -130.107 495.337 197.342" stroke="currentColor" stroke-width="8" stroke-linecap="round"/>
</svg>
